<svg xmlns="http://www.w3.org/2000/svg" viewBox="0 0 338 115">
<rect x="29" y="18" width="1" height="1" fill="currentColor"/>
<rect x="28" y="19" width="2" height="1" fill="currentColor"/>
<rect x="70" y="19" width="3" height="1" fill="currentColor"/>
<rect x="27" y="20" width="3" height="1" fill="currentColor"/>
<rect x="71" y="20" width="2" height="1" fill="currentColor"/>
<rect x="27" y="21" width="3" height="1" fill="currentColor"/>
<rect x="70" y="21" width="3" height="1" fill="currentColor"/>
<rect x="27" y="22" width="3" height="1" fill="currentColor"/>
<rect x="70" y="22" width="3" height="1" fill="currentColor"/>
<rect x="140" y="22" width="1" height="1" fill="currentColor"/>
<rect x="27" y="23" width="3" height="1" fill="currentColor"/>
<rect x="70" y="23" width="2" height="1" fill="currentColor"/>
<rect x="140" y="23" width="2" height="1" fill="currentColor"/>
<rect x="315" y="23" width="1" height="1" fill="currentColor"/>
<rect x="317" y="23" width="1" height="1" fill="currentColor"/>
<rect x="27" y="24" width="2" height="1" fill="currentColor"/>
<rect x="70" y="24" width="2" height="1" fill="currentColor"/>
<rect x="138" y="24" width="5" height="1" fill="currentColor"/>
<rect x="315" y="24" width="3" height="1" fill="currentColor"/>
<rect x="27" y="25" width="3" height="1" fill="currentColor"/>
<rect x="70" y="25" width="2" height="1" fill="currentColor"/>
<rect x="137" y="25" width="1" height="1" fill="currentColor"/>
<rect x="139" y="25" width="2" height="1" fill="currentColor"/>
<rect x="315" y="25" width="3" height="1" fill="currentColor"/>
<rect x="27" y="26" width="3" height="1" fill="currentColor"/>
<rect x="69" y="26" width="2" height="1" fill="currentColor"/>
<rect x="137" y="26" width="3" height="1" fill="currentColor"/>
<rect x="199" y="26" width="7" height="1" fill="currentColor"/>
<rect x="314" y="26" width="5" height="1" fill="currentColor"/>
<rect x="27" y="27" width="2" height="1" fill="currentColor"/>
<rect x="69" y="27" width="2" height="1" fill="currentColor"/>
<rect x="138" y="27" width="2" height="1" fill="currentColor"/>
<rect x="196" y="27" width="11" height="1" fill="currentColor"/>
<rect x="226" y="27" width="1" height="1" fill="currentColor"/>
<rect x="314" y="27" width="2" height="1" fill="currentColor"/>
<rect x="317" y="27" width="2" height="1" fill="currentColor"/>
<rect x="27" y="28" width="2" height="1" fill="currentColor"/>
<rect x="68" y="28" width="3" height="1" fill="currentColor"/>
<rect x="137" y="28" width="3" height="1" fill="currentColor"/>
<rect x="195" y="28" width="6" height="1" fill="currentColor"/>
<rect x="204" y="28" width="3" height="1" fill="currentColor"/>
<rect x="226" y="28" width="2" height="1" fill="currentColor"/>
<rect x="313" y="28" width="5" height="1" fill="currentColor"/>
<rect x="27" y="29" width="2" height="1" fill="currentColor"/>
<rect x="68" y="29" width="3" height="1" fill="currentColor"/>
<rect x="137" y="29" width="2" height="1" fill="currentColor"/>
<rect x="193" y="29" width="5" height="1" fill="currentColor"/>
<rect x="205" y="29" width="2" height="1" fill="currentColor"/>
<rect x="226" y="29" width="3" height="1" fill="currentColor"/>
<rect x="313" y="29" width="5" height="1" fill="currentColor"/>
<rect x="27" y="30" width="2" height="1" fill="currentColor"/>
<rect x="69" y="30" width="2" height="1" fill="currentColor"/>
<rect x="137" y="30" width="2" height="1" fill="currentColor"/>
<rect x="191" y="30" width="6" height="1" fill="currentColor"/>
<rect x="206" y="30" width="2" height="1" fill="currentColor"/>
<rect x="226" y="30" width="2" height="1" fill="currentColor"/>
<rect x="313" y="30" width="5" height="1" fill="currentColor"/>
<rect x="26" y="31" width="3" height="1" fill="currentColor"/>
<rect x="68" y="31" width="3" height="1" fill="currentColor"/>
<rect x="189" y="31" width="4" height="1" fill="currentColor"/>
<rect x="194" y="31" width="1" height="1" fill="currentColor"/>
<rect x="205" y="31" width="4" height="1" fill="currentColor"/>
<rect x="225" y="31" width="3" height="1" fill="currentColor"/>
<rect x="313" y="31" width="4" height="1" fill="currentColor"/>
<rect x="27" y="32" width="2" height="1" fill="currentColor"/>
<rect x="68" y="32" width="2" height="1" fill="currentColor"/>
<rect x="189" y="32" width="3" height="1" fill="currentColor"/>
<rect x="206" y="32" width="3" height="1" fill="currentColor"/>
<rect x="225" y="32" width="2" height="1" fill="currentColor"/>
<rect x="313" y="32" width="5" height="1" fill="currentColor"/>
<rect x="26" y="33" width="3" height="1" fill="currentColor"/>
<rect x="67" y="33" width="3" height="1" fill="currentColor"/>
<rect x="187" y="33" width="4" height="1" fill="currentColor"/>
<rect x="206" y="33" width="3" height="1" fill="currentColor"/>
<rect x="224" y="33" width="4" height="1" fill="currentColor"/>
<rect x="312" y="33" width="6" height="1" fill="currentColor"/>
<rect x="26" y="34" width="3" height="1" fill="currentColor"/>
<rect x="67" y="34" width="3" height="1" fill="currentColor"/>
<rect x="186" y="34" width="4" height="1" fill="currentColor"/>
<rect x="208" y="34" width="1" height="1" fill="currentColor"/>
<rect x="225" y="34" width="2" height="1" fill="currentColor"/>
<rect x="312" y="34" width="5" height="1" fill="currentColor"/>
<rect x="26" y="35" width="3" height="1" fill="currentColor"/>
<rect x="67" y="35" width="2" height="1" fill="currentColor"/>
<rect x="186" y="35" width="3" height="1" fill="currentColor"/>
<rect x="225" y="35" width="1" height="1" fill="currentColor"/>
<rect x="313" y="35" width="4" height="1" fill="currentColor"/>
<rect x="26" y="36" width="3" height="1" fill="currentColor"/>
<rect x="67" y="36" width="2" height="1" fill="currentColor"/>
<rect x="186" y="36" width="2" height="1" fill="currentColor"/>
<rect x="224" y="36" width="3" height="1" fill="currentColor"/>
<rect x="312" y="36" width="5" height="1" fill="currentColor"/>
<rect x="26" y="37" width="3" height="1" fill="currentColor"/>
<rect x="66" y="37" width="3" height="1" fill="currentColor"/>
<rect x="185" y="37" width="3" height="1" fill="currentColor"/>
<rect x="224" y="37" width="2" height="1" fill="currentColor"/>
<rect x="312" y="37" width="5" height="1" fill="currentColor"/>
<rect x="27" y="38" width="2" height="1" fill="currentColor"/>
<rect x="65" y="38" width="2" height="1" fill="currentColor"/>
<rect x="185" y="38" width="2" height="1" fill="currentColor"/>
<rect x="224" y="38" width="2" height="1" fill="currentColor"/>
<rect x="311" y="38" width="3" height="1" fill="currentColor"/>
<rect x="315" y="38" width="2" height="1" fill="currentColor"/>
<rect x="26" y="39" width="3" height="1" fill="currentColor"/>
<rect x="65" y="39" width="3" height="1" fill="currentColor"/>
<rect x="184" y="39" width="3" height="1" fill="currentColor"/>
<rect x="223" y="39" width="3" height="1" fill="currentColor"/>
<rect x="312" y="39" width="4" height="1" fill="currentColor"/>
<rect x="26" y="40" width="3" height="1" fill="currentColor"/>
<rect x="65" y="40" width="3" height="1" fill="currentColor"/>
<rect x="184" y="40" width="2" height="1" fill="currentColor"/>
<rect x="223" y="40" width="3" height="1" fill="currentColor"/>
<rect x="311" y="40" width="5" height="1" fill="currentColor"/>
<rect x="26" y="41" width="2" height="1" fill="currentColor"/>
<rect x="65" y="41" width="3" height="1" fill="currentColor"/>
<rect x="139" y="41" width="1" height="1" fill="currentColor"/>
<rect x="183" y="41" width="3" height="1" fill="currentColor"/>
<rect x="223" y="41" width="2" height="1" fill="currentColor"/>
<rect x="312" y="41" width="4" height="1" fill="currentColor"/>
<rect x="26" y="42" width="3" height="1" fill="currentColor"/>
<rect x="64" y="42" width="3" height="1" fill="currentColor"/>
<rect x="138" y="42" width="3" height="1" fill="currentColor"/>
<rect x="183" y="42" width="3" height="1" fill="currentColor"/>
<rect x="222" y="42" width="3" height="1" fill="currentColor"/>
<rect x="311" y="42" width="5" height="1" fill="currentColor"/>
<rect x="27" y="43" width="2" height="1" fill="currentColor"/>
<rect x="64" y="43" width="3" height="1" fill="currentColor"/>
<rect x="138" y="43" width="2" height="1" fill="currentColor"/>
<rect x="183" y="43" width="2" height="1" fill="currentColor"/>
<rect x="222" y="43" width="2" height="1" fill="currentColor"/>
<rect x="312" y="43" width="4" height="1" fill="currentColor"/>
<rect x="27" y="44" width="2" height="1" fill="currentColor"/>
<rect x="64" y="44" width="3" height="1" fill="currentColor"/>
<rect x="80" y="44" width="1" height="1" fill="currentColor"/>
<rect x="137" y="44" width="4" height="1" fill="currentColor"/>
<rect x="184" y="44" width="1" height="1" fill="currentColor"/>
<rect x="223" y="44" width="2" height="1" fill="currentColor"/>
<rect x="311" y="44" width="4" height="1" fill="currentColor"/>
<rect x="26" y="45" width="4" height="1" fill="currentColor"/>
<rect x="63" y="45" width="3" height="1" fill="currentColor"/>
<rect x="80" y="45" width="1" height="1" fill="currentColor"/>
<rect x="101" y="45" width="1" height="1" fill="currentColor"/>
<rect x="138" y="45" width="2" height="1" fill="currentColor"/>
<rect x="183" y="45" width="3" height="1" fill="currentColor"/>
<rect x="221" y="45" width="3" height="1" fill="currentColor"/>
<rect x="311" y="45" width="4" height="1" fill="currentColor"/>
<rect x="27" y="46" width="2" height="1" fill="currentColor"/>
<rect x="63" y="46" width="2" height="1" fill="currentColor"/>
<rect x="78" y="46" width="3" height="1" fill="currentColor"/>
<rect x="98" y="46" width="6" height="1" fill="currentColor"/>
<rect x="137" y="46" width="3" height="1" fill="currentColor"/>
<rect x="182" y="46" width="4" height="1" fill="currentColor"/>
<rect x="222" y="46" width="1" height="1" fill="currentColor"/>
<rect x="310" y="46" width="5" height="1" fill="currentColor"/>
<rect x="27" y="47" width="2" height="1" fill="currentColor"/>
<rect x="62" y="47" width="4" height="1" fill="currentColor"/>
<rect x="78" y="47" width="3" height="1" fill="currentColor"/>
<rect x="98" y="47" width="7" height="1" fill="currentColor"/>
<rect x="137" y="47" width="3" height="1" fill="currentColor"/>
<rect x="182" y="47" width="4" height="1" fill="currentColor"/>
<rect x="221" y="47" width="3" height="1" fill="currentColor"/>
<rect x="311" y="47" width="4" height="1" fill="currentColor"/>
<rect x="27" y="48" width="3" height="1" fill="currentColor"/>
<rect x="62" y="48" width="3" height="1" fill="currentColor"/>
<rect x="77" y="48" width="4" height="1" fill="currentColor"/>
<rect x="98" y="48" width="3" height="1" fill="currentColor"/>
<rect x="103" y="48" width="2" height="1" fill="currentColor"/>
<rect x="137" y="48" width="3" height="1" fill="currentColor"/>
<rect x="183" y="48" width="3" height="1" fill="currentColor"/>
<rect x="220" y="48" width="4" height="1" fill="currentColor"/>
<rect x="308" y="48" width="1" height="1" fill="currentColor"/>
<rect x="311" y="48" width="4" height="1" fill="currentColor"/>
<rect x="27" y="49" width="2" height="1" fill="currentColor"/>
<rect x="62" y="49" width="3" height="1" fill="currentColor"/>
<rect x="77" y="49" width="2" height="1" fill="currentColor"/>
<rect x="96" y="49" width="3" height="1" fill="currentColor"/>
<rect x="103" y="49" width="2" height="1" fill="currentColor"/>
<rect x="137" y="49" width="3" height="1" fill="currentColor"/>
<rect x="183" y="49" width="3" height="1" fill="currentColor"/>
<rect x="221" y="49" width="2" height="1" fill="currentColor"/>
<rect x="251" y="49" width="6" height="1" fill="currentColor"/>
<rect x="275" y="49" width="2" height="1" fill="currentColor"/>
<rect x="305" y="49" width="1" height="1" fill="currentColor"/>
<rect x="307" y="49" width="7" height="1" fill="currentColor"/>
<rect x="27" y="50" width="3" height="1" fill="currentColor"/>
<rect x="61" y="50" width="3" height="1" fill="currentColor"/>
<rect x="76" y="50" width="4" height="1" fill="currentColor"/>
<rect x="95" y="50" width="3" height="1" fill="currentColor"/>
<rect x="103" y="50" width="2" height="1" fill="currentColor"/>
<rect x="137" y="50" width="3" height="1" fill="currentColor"/>
<rect x="183" y="50" width="3" height="1" fill="currentColor"/>
<rect x="220" y="50" width="3" height="1" fill="currentColor"/>
<rect x="249" y="50" width="8" height="1" fill="currentColor"/>
<rect x="275" y="50" width="2" height="1" fill="currentColor"/>
<rect x="305" y="50" width="9" height="1" fill="currentColor"/>
<rect x="27" y="51" width="3" height="1" fill="currentColor"/>
<rect x="61" y="51" width="3" height="1" fill="currentColor"/>
<rect x="76" y="51" width="3" height="1" fill="currentColor"/>
<rect x="82" y="51" width="6" height="1" fill="currentColor"/>
<rect x="94" y="51" width="4" height="1" fill="currentColor"/>
<rect x="104" y="51" width="2" height="1" fill="currentColor"/>
<rect x="137" y="51" width="2" height="1" fill="currentColor"/>
<rect x="183" y="51" width="2" height="1" fill="currentColor"/>
<rect x="219" y="51" width="3" height="1" fill="currentColor"/>
<rect x="249" y="51" width="4" height="1" fill="currentColor"/>
<rect x="255" y="51" width="4" height="1" fill="currentColor"/>
<rect x="275" y="51" width="2" height="1" fill="currentColor"/>
<rect x="284" y="51" width="6" height="1" fill="currentColor"/>
<rect x="303" y="51" width="11" height="1" fill="currentColor"/>
<rect x="28" y="52" width="3" height="1" fill="currentColor"/>
<rect x="60" y="52" width="4" height="1" fill="currentColor"/>
<rect x="75" y="52" width="3" height="1" fill="currentColor"/>
<rect x="81" y="52" width="7" height="1" fill="currentColor"/>
<rect x="94" y="52" width="3" height="1" fill="currentColor"/>
<rect x="103" y="52" width="4" height="1" fill="currentColor"/>
<rect x="136" y="52" width="4" height="1" fill="currentColor"/>
<rect x="183" y="52" width="2" height="1" fill="currentColor"/>
<rect x="220" y="52" width="2" height="1" fill="currentColor"/>
<rect x="225" y="52" width="2" height="1" fill="currentColor"/>
<rect x="248" y="52" width="4" height="1" fill="currentColor"/>
<rect x="258" y="52" width="2" height="1" fill="currentColor"/>
<rect x="275" y="52" width="2" height="1" fill="currentColor"/>
<rect x="282" y="52" width="8" height="1" fill="currentColor"/>
<rect x="303" y="52" width="2" height="1" fill="currentColor"/>
<rect x="306" y="52" width="1" height="1" fill="currentColor"/>
<rect x="310" y="52" width="3" height="1" fill="currentColor"/>
<rect x="28" y="53" width="3" height="1" fill="currentColor"/>
<rect x="60" y="53" width="4" height="1" fill="currentColor"/>
<rect x="76" y="53" width="2" height="1" fill="currentColor"/>
<rect x="81" y="53" width="3" height="1" fill="currentColor"/>
<rect x="86" y="53" width="3" height="1" fill="currentColor"/>
<rect x="93" y="53" width="3" height="1" fill="currentColor"/>
<rect x="104" y="53" width="2" height="1" fill="currentColor"/>
<rect x="137" y="53" width="2" height="1" fill="currentColor"/>
<rect x="183" y="53" width="3" height="1" fill="currentColor"/>
<rect x="219" y="53" width="3" height="1" fill="currentColor"/>
<rect x="225" y="53" width="2" height="1" fill="currentColor"/>
<rect x="247" y="53" width="3" height="1" fill="currentColor"/>
<rect x="257" y="53" width="3" height="1" fill="currentColor"/>
<rect x="274" y="53" width="2" height="1" fill="currentColor"/>
<rect x="280" y="53" width="5" height="1" fill="currentColor"/>
<rect x="288" y="53" width="3" height="1" fill="currentColor"/>
<rect x="302" y="53" width="4" height="1" fill="currentColor"/>
<rect x="310" y="53" width="3" height="1" fill="currentColor"/>
<rect x="28" y="54" width="2" height="1" fill="currentColor"/>
<rect x="60" y="54" width="2" height="1" fill="currentColor"/>
<rect x="75" y="54" width="3" height="1" fill="currentColor"/>
<rect x="79" y="54" width="3" height="1" fill="currentColor"/>
<rect x="86" y="54" width="3" height="1" fill="currentColor"/>
<rect x="92" y="54" width="4" height="1" fill="currentColor"/>
<rect x="104" y="54" width="3" height="1" fill="currentColor"/>
<rect x="136" y="54" width="4" height="1" fill="currentColor"/>
<rect x="183" y="54" width="3" height="1" fill="currentColor"/>
<rect x="219" y="54" width="2" height="1" fill="currentColor"/>
<rect x="223" y="54" width="6" height="1" fill="currentColor"/>
<rect x="247" y="54" width="2" height="1" fill="currentColor"/>
<rect x="258" y="54" width="3" height="1" fill="currentColor"/>
<rect x="275" y="54" width="1" height="1" fill="currentColor"/>
<rect x="279" y="54" width="4" height="1" fill="currentColor"/>
<rect x="289" y="54" width="2" height="1" fill="currentColor"/>
<rect x="302" y="54" width="2" height="1" fill="currentColor"/>
<rect x="310" y="54" width="4" height="1" fill="currentColor"/>
<rect x="28" y="55" width="3" height="1" fill="currentColor"/>
<rect x="59" y="55" width="4" height="1" fill="currentColor"/>
<rect x="74" y="55" width="3" height="1" fill="currentColor"/>
<rect x="78" y="55" width="4" height="1" fill="currentColor"/>
<rect x="87" y="55" width="2" height="1" fill="currentColor"/>
<rect x="92" y="55" width="4" height="1" fill="currentColor"/>
<rect x="105" y="55" width="2" height="1" fill="currentColor"/>
<rect x="137" y="55" width="2" height="1" fill="currentColor"/>
<rect x="184" y="55" width="2" height="1" fill="currentColor"/>
<rect x="218" y="55" width="3" height="1" fill="currentColor"/>
<rect x="223" y="55" width="2" height="1" fill="currentColor"/>
<rect x="226" y="55" width="3" height="1" fill="currentColor"/>
<rect x="246" y="55" width="3" height="1" fill="currentColor"/>
<rect x="258" y="55" width="3" height="1" fill="currentColor"/>
<rect x="274" y="55" width="3" height="1" fill="currentColor"/>
<rect x="279" y="55" width="3" height="1" fill="currentColor"/>
<rect x="290" y="55" width="2" height="1" fill="currentColor"/>
<rect x="301" y="55" width="3" height="1" fill="currentColor"/>
<rect x="309" y="55" width="4" height="1" fill="currentColor"/>
<rect x="29" y="56" width="2" height="1" fill="currentColor"/>
<rect x="59" y="56" width="3" height="1" fill="currentColor"/>
<rect x="74" y="56" width="2" height="1" fill="currentColor"/>
<rect x="78" y="56" width="3" height="1" fill="currentColor"/>
<rect x="86" y="56" width="4" height="1" fill="currentColor"/>
<rect x="92" y="56" width="3" height="1" fill="currentColor"/>
<rect x="104" y="56" width="3" height="1" fill="currentColor"/>
<rect x="137" y="56" width="2" height="1" fill="currentColor"/>
<rect x="184" y="56" width="2" height="1" fill="currentColor"/>
<rect x="218" y="56" width="2" height="1" fill="currentColor"/>
<rect x="221" y="56" width="4" height="1" fill="currentColor"/>
<rect x="226" y="56" width="4" height="1" fill="currentColor"/>
<rect x="245" y="56" width="3" height="1" fill="currentColor"/>
<rect x="258" y="56" width="3" height="1" fill="currentColor"/>
<rect x="274" y="56" width="7" height="1" fill="currentColor"/>
<rect x="301" y="56" width="2" height="1" fill="currentColor"/>
<rect x="309" y="56" width="5" height="1" fill="currentColor"/>
<rect x="29" y="57" width="3" height="1" fill="currentColor"/>
<rect x="59" y="57" width="2" height="1" fill="currentColor"/>
<rect x="73" y="57" width="7" height="1" fill="currentColor"/>
<rect x="87" y="57" width="2" height="1" fill="currentColor"/>
<rect x="91" y="57" width="3" height="1" fill="currentColor"/>
<rect x="105" y="57" width="2" height="1" fill="currentColor"/>
<rect x="118" y="57" width="3" height="1" fill="currentColor"/>
<rect x="137" y="57" width="2" height="1" fill="currentColor"/>
<rect x="150" y="57" width="2" height="1" fill="currentColor"/>
<rect x="184" y="57" width="3" height="1" fill="currentColor"/>
<rect x="218" y="57" width="6" height="1" fill="currentColor"/>
<rect x="227" y="57" width="3" height="1" fill="currentColor"/>
<rect x="237" y="57" width="1" height="1" fill="currentColor"/>
<rect x="245" y="57" width="3" height="1" fill="currentColor"/>
<rect x="258" y="57" width="3" height="1" fill="currentColor"/>
<rect x="274" y="57" width="6" height="1" fill="currentColor"/>
<rect x="300" y="57" width="3" height="1" fill="currentColor"/>
<rect x="309" y="57" width="4" height="1" fill="currentColor"/>
<rect x="29" y="58" width="3" height="1" fill="currentColor"/>
<rect x="59" y="58" width="2" height="1" fill="currentColor"/>
<rect x="72" y="58" width="7" height="1" fill="currentColor"/>
<rect x="87" y="58" width="2" height="1" fill="currentColor"/>
<rect x="91" y="58" width="3" height="1" fill="currentColor"/>
<rect x="105" y="58" width="2" height="1" fill="currentColor"/>
<rect x="117" y="58" width="3" height="1" fill="currentColor"/>
<rect x="137" y="58" width="3" height="1" fill="currentColor"/>
<rect x="151" y="58" width="1" height="1" fill="currentColor"/>
<rect x="184" y="58" width="3" height="1" fill="currentColor"/>
<rect x="217" y="58" width="6" height="1" fill="currentColor"/>
<rect x="227" y="58" width="3" height="1" fill="currentColor"/>
<rect x="236" y="58" width="2" height="1" fill="currentColor"/>
<rect x="245" y="58" width="3" height="1" fill="currentColor"/>
<rect x="258" y="58" width="3" height="1" fill="currentColor"/>
<rect x="274" y="58" width="4" height="1" fill="currentColor"/>
<rect x="300" y="58" width="3" height="1" fill="currentColor"/>
<rect x="309" y="58" width="5" height="1" fill="currentColor"/>
<rect x="30" y="59" width="2" height="1" fill="currentColor"/>
<rect x="58" y="59" width="2" height="1" fill="currentColor"/>
<rect x="72" y="59" width="3" height="1" fill="currentColor"/>
<rect x="76" y="59" width="2" height="1" fill="currentColor"/>
<rect x="87" y="59" width="3" height="1" fill="currentColor"/>
<rect x="91" y="59" width="3" height="1" fill="currentColor"/>
<rect x="105" y="59" width="2" height="1" fill="currentColor"/>
<rect x="115" y="59" width="5" height="1" fill="currentColor"/>
<rect x="137" y="59" width="3" height="1" fill="currentColor"/>
<rect x="150" y="59" width="3" height="1" fill="currentColor"/>
<rect x="184" y="59" width="3" height="1" fill="currentColor"/>
<rect x="217" y="59" width="2" height="1" fill="currentColor"/>
<rect x="220" y="59" width="2" height="1" fill="currentColor"/>
<rect x="228" y="59" width="2" height="1" fill="currentColor"/>
<rect x="236" y="59" width="2" height="1" fill="currentColor"/>
<rect x="246" y="59" width="2" height="1" fill="currentColor"/>
<rect x="257" y="59" width="4" height="1" fill="currentColor"/>
<rect x="273" y="59" width="5" height="1" fill="currentColor"/>
<rect x="300" y="59" width="3" height="1" fill="currentColor"/>
<rect x="309" y="59" width="2" height="1" fill="currentColor"/>
<rect x="312" y="59" width="2" height="1" fill="currentColor"/>
<rect x="30" y="60" width="3" height="1" fill="currentColor"/>
<rect x="57" y="60" width="2" height="1" fill="currentColor"/>
<rect x="71" y="60" width="3" height="1" fill="currentColor"/>
<rect x="75" y="60" width="3" height="1" fill="currentColor"/>
<rect x="87" y="60" width="5" height="1" fill="currentColor"/>
<rect x="106" y="60" width="2" height="1" fill="currentColor"/>
<rect x="115" y="60" width="3" height="1" fill="currentColor"/>
<rect x="138" y="60" width="2" height="1" fill="currentColor"/>
<rect x="150" y="60" width="2" height="1" fill="currentColor"/>
<rect x="185" y="60" width="3" height="1" fill="currentColor"/>
<rect x="202" y="60" width="1" height="1" fill="currentColor"/>
<rect x="216" y="60" width="5" height="1" fill="currentColor"/>
<rect x="227" y="60" width="3" height="1" fill="currentColor"/>
<rect x="235" y="60" width="3" height="1" fill="currentColor"/>
<rect x="245" y="60" width="3" height="1" fill="currentColor"/>
<rect x="257" y="60" width="2" height="1" fill="currentColor"/>
<rect x="273" y="60" width="4" height="1" fill="currentColor"/>
<rect x="300" y="60" width="2" height="1" fill="currentColor"/>
<rect x="308" y="60" width="6" height="1" fill="currentColor"/>
<rect x="30" y="61" width="4" height="1" fill="currentColor"/>
<rect x="57" y="61" width="1" height="1" fill="currentColor"/>
<rect x="71" y="61" width="5" height="1" fill="currentColor"/>
<rect x="87" y="61" width="6" height="1" fill="currentColor"/>
<rect x="106" y="61" width="3" height="1" fill="currentColor"/>
<rect x="114" y="61" width="4" height="1" fill="currentColor"/>
<rect x="138" y="61" width="3" height="1" fill="currentColor"/>
<rect x="148" y="61" width="4" height="1" fill="currentColor"/>
<rect x="185" y="61" width="4" height="1" fill="currentColor"/>
<rect x="199" y="61" width="6" height="1" fill="currentColor"/>
<rect x="216" y="61" width="4" height="1" fill="currentColor"/>
<rect x="228" y="61" width="2" height="1" fill="currentColor"/>
<rect x="233" y="61" width="4" height="1" fill="currentColor"/>
<rect x="245" y="61" width="3" height="1" fill="currentColor"/>
<rect x="256" y="61" width="4" height="1" fill="currentColor"/>
<rect x="273" y="61" width="4" height="1" fill="currentColor"/>
<rect x="299" y="61" width="3" height="1" fill="currentColor"/>
<rect x="308" y="61" width="7" height="1" fill="currentColor"/>
<rect x="31" y="62" width="3" height="1" fill="currentColor"/>
<rect x="55" y="62" width="3" height="1" fill="currentColor"/>
<rect x="71" y="62" width="4" height="1" fill="currentColor"/>
<rect x="88" y="62" width="3" height="1" fill="currentColor"/>
<rect x="105" y="62" width="4" height="1" fill="currentColor"/>
<rect x="113" y="62" width="3" height="1" fill="currentColor"/>
<rect x="138" y="62" width="3" height="1" fill="currentColor"/>
<rect x="148" y="62" width="3" height="1" fill="currentColor"/>
<rect x="186" y="62" width="4" height="1" fill="currentColor"/>
<rect x="197" y="62" width="6" height="1" fill="currentColor"/>
<rect x="216" y="62" width="4" height="1" fill="currentColor"/>
<rect x="229" y="62" width="2" height="1" fill="currentColor"/>
<rect x="232" y="62" width="4" height="1" fill="currentColor"/>
<rect x="245" y="62" width="3" height="1" fill="currentColor"/>
<rect x="255" y="62" width="4" height="1" fill="currentColor"/>
<rect x="272" y="62" width="4" height="1" fill="currentColor"/>
<rect x="299" y="62" width="2" height="1" fill="currentColor"/>
<rect x="307" y="62" width="3" height="1" fill="currentColor"/>
<rect x="313" y="62" width="2" height="1" fill="currentColor"/>
<rect x="32" y="63" width="2" height="1" fill="currentColor"/>
<rect x="55" y="63" width="3" height="1" fill="currentColor"/>
<rect x="71" y="63" width="4" height="1" fill="currentColor"/>
<rect x="88" y="63" width="4" height="1" fill="currentColor"/>
<rect x="107" y="63" width="3" height="1" fill="currentColor"/>
<rect x="112" y="63" width="4" height="1" fill="currentColor"/>
<rect x="138" y="63" width="2" height="1" fill="currentColor"/>
<rect x="148" y="63" width="2" height="1" fill="currentColor"/>
<rect x="186" y="63" width="16" height="1" fill="currentColor"/>
<rect x="215" y="63" width="4" height="1" fill="currentColor"/>
<rect x="230" y="63" width="5" height="1" fill="currentColor"/>
<rect x="245" y="63" width="3" height="1" fill="currentColor"/>
<rect x="253" y="63" width="5" height="1" fill="currentColor"/>
<rect x="271" y="63" width="3" height="1" fill="currentColor"/>
<rect x="299" y="63" width="3" height="1" fill="currentColor"/>
<rect x="307" y="63" width="3" height="1" fill="currentColor"/>
<rect x="312" y="63" width="3" height="1" fill="currentColor"/>
<rect x="32" y="64" width="4" height="1" fill="currentColor"/>
<rect x="53" y="64" width="4" height="1" fill="currentColor"/>
<rect x="70" y="64" width="4" height="1" fill="currentColor"/>
<rect x="106" y="64" width="9" height="1" fill="currentColor"/>
<rect x="139" y="64" width="3" height="1" fill="currentColor"/>
<rect x="146" y="64" width="4" height="1" fill="currentColor"/>
<rect x="187" y="64" width="10" height="1" fill="currentColor"/>
<rect x="215" y="64" width="4" height="1" fill="currentColor"/>
<rect x="231" y="64" width="2" height="1" fill="currentColor"/>
<rect x="245" y="64" width="3" height="1" fill="currentColor"/>
<rect x="252" y="64" width="4" height="1" fill="currentColor"/>
<rect x="271" y="64" width="3" height="1" fill="currentColor"/>
<rect x="300" y="64" width="2" height="1" fill="currentColor"/>
<rect x="305" y="64" width="5" height="1" fill="currentColor"/>
<rect x="313" y="64" width="3" height="1" fill="currentColor"/>
<rect x="33" y="65" width="3" height="1" fill="currentColor"/>
<rect x="52" y="65" width="3" height="1" fill="currentColor"/>
<rect x="70" y="65" width="4" height="1" fill="currentColor"/>
<rect x="107" y="65" width="6" height="1" fill="currentColor"/>
<rect x="139" y="65" width="3" height="1" fill="currentColor"/>
<rect x="144" y="65" width="5" height="1" fill="currentColor"/>
<rect x="190" y="65" width="1" height="1" fill="currentColor"/>
<rect x="192" y="65" width="3" height="1" fill="currentColor"/>
<rect x="214" y="65" width="4" height="1" fill="currentColor"/>
<rect x="246" y="65" width="10" height="1" fill="currentColor"/>
<rect x="271" y="65" width="3" height="1" fill="currentColor"/>
<rect x="299" y="65" width="3" height="1" fill="currentColor"/>
<rect x="306" y="65" width="4" height="1" fill="currentColor"/>
<rect x="314" y="65" width="3" height="1" fill="currentColor"/>
<rect x="33" y="66" width="1" height="1" fill="currentColor"/>
<rect x="35" y="66" width="3" height="1" fill="currentColor"/>
<rect x="51" y="66" width="4" height="1" fill="currentColor"/>
<rect x="69" y="66" width="4" height="1" fill="currentColor"/>
<rect x="109" y="66" width="1" height="1" fill="currentColor"/>
<rect x="112" y="66" width="1" height="1" fill="currentColor"/>
<rect x="140" y="66" width="7" height="1" fill="currentColor"/>
<rect x="214" y="66" width="4" height="1" fill="currentColor"/>
<rect x="248" y="66" width="6" height="1" fill="currentColor"/>
<rect x="271" y="66" width="2" height="1" fill="currentColor"/>
<rect x="299" y="66" width="2" height="1" fill="currentColor"/>
<rect x="302" y="66" width="1" height="1" fill="currentColor"/>
<rect x="304" y="66" width="5" height="1" fill="currentColor"/>
<rect x="314" y="66" width="3" height="1" fill="currentColor"/>
<rect x="35" y="67" width="6" height="1" fill="currentColor"/>
<rect x="47" y="67" width="6" height="1" fill="currentColor"/>
<rect x="68" y="67" width="4" height="1" fill="currentColor"/>
<rect x="141" y="67" width="5" height="1" fill="currentColor"/>
<rect x="214" y="67" width="2" height="1" fill="currentColor"/>
<rect x="248" y="67" width="2" height="1" fill="currentColor"/>
<rect x="251" y="67" width="1" height="1" fill="currentColor"/>
<rect x="270" y="67" width="2" height="1" fill="currentColor"/>
<rect x="299" y="67" width="8" height="1" fill="currentColor"/>
<rect x="315" y="67" width="3" height="1" fill="currentColor"/>
<rect x="35" y="68" width="6" height="1" fill="currentColor"/>
<rect x="42" y="68" width="1" height="1" fill="currentColor"/>
<rect x="44" y="68" width="7" height="1" fill="currentColor"/>
<rect x="68" y="68" width="4" height="1" fill="currentColor"/>
<rect x="142" y="68" width="1" height="1" fill="currentColor"/>
<rect x="144" y="68" width="1" height="1" fill="currentColor"/>
<rect x="300" y="68" width="5" height="1" fill="currentColor"/>
<rect x="315" y="68" width="5" height="1" fill="currentColor"/>
<rect x="37" y="69" width="14" height="1" fill="currentColor"/>
<rect x="68" y="69" width="1" height="1" fill="currentColor"/>
<rect x="301" y="69" width="2" height="1" fill="currentColor"/>
<rect x="317" y="69" width="3" height="1" fill="currentColor"/>
<rect x="39" y="70" width="3" height="1" fill="currentColor"/>
<rect x="43" y="70" width="3" height="1" fill="currentColor"/>
<rect x="47" y="70" width="1" height="1" fill="currentColor"/>
<rect x="317" y="70" width="1" height="1" fill="currentColor"/>
<rect x="319" y="70" width="2" height="1" fill="currentColor"/>
<rect x="13" y="75" width="1" height="1" fill="currentColor"/>
<rect x="11" y="76" width="2" height="1" fill="currentColor"/>
<rect x="9" y="77" width="6" height="1" fill="currentColor"/>
<rect x="9" y="78" width="6" height="1" fill="currentColor"/>
<rect x="152" y="78" width="2" height="1" fill="currentColor"/>
<rect x="156" y="78" width="5" height="1" fill="currentColor"/>
<rect x="162" y="78" width="4" height="1" fill="currentColor"/>
<rect x="8" y="79" width="8" height="1" fill="currentColor"/>
<rect x="96" y="79" width="1" height="1" fill="currentColor"/>
<rect x="99" y="79" width="1" height="1" fill="currentColor"/>
<rect x="101" y="79" width="1" height="1" fill="currentColor"/>
<rect x="103" y="79" width="1" height="1" fill="currentColor"/>
<rect x="105" y="79" width="1" height="1" fill="currentColor"/>
<rect x="107" y="79" width="2" height="1" fill="currentColor"/>
<rect x="112" y="79" width="3" height="1" fill="currentColor"/>
<rect x="147" y="79" width="19" height="1" fill="currentColor"/>
<rect x="264" y="79" width="2" height="1" fill="currentColor"/>
<rect x="7" y="80" width="6" height="1" fill="currentColor"/>
<rect x="14" y="80" width="3" height="1" fill="currentColor"/>
<rect x="93" y="80" width="2" height="1" fill="currentColor"/>
<rect x="96" y="80" width="21" height="1" fill="currentColor"/>
<rect x="118" y="80" width="3" height="1" fill="currentColor"/>
<rect x="126" y="80" width="1" height="1" fill="currentColor"/>
<rect x="129" y="80" width="1" height="1" fill="currentColor"/>
<rect x="131" y="80" width="1" height="1" fill="currentColor"/>
<rect x="133" y="80" width="1" height="1" fill="currentColor"/>
<rect x="135" y="80" width="27" height="1" fill="currentColor"/>
<rect x="164" y="80" width="3" height="1" fill="currentColor"/>
<rect x="195" y="80" width="1" height="1" fill="currentColor"/>
<rect x="197" y="80" width="1" height="1" fill="currentColor"/>
<rect x="199" y="80" width="2" height="1" fill="currentColor"/>
<rect x="236" y="80" width="3" height="1" fill="currentColor"/>
<rect x="240" y="80" width="1" height="1" fill="currentColor"/>
<rect x="263" y="80" width="5" height="1" fill="currentColor"/>
<rect x="269" y="80" width="2" height="1" fill="currentColor"/>
<rect x="8" y="81" width="3" height="1" fill="currentColor"/>
<rect x="12" y="81" width="5" height="1" fill="currentColor"/>
<rect x="88" y="81" width="19" height="1" fill="currentColor"/>
<rect x="108" y="81" width="16" height="1" fill="currentColor"/>
<rect x="126" y="81" width="23" height="1" fill="currentColor"/>
<rect x="150" y="81" width="2" height="1" fill="currentColor"/>
<rect x="191" y="81" width="12" height="1" fill="currentColor"/>
<rect x="204" y="81" width="1" height="1" fill="currentColor"/>
<rect x="234" y="81" width="7" height="1" fill="currentColor"/>
<rect x="261" y="81" width="14" height="1" fill="currentColor"/>
<rect x="6" y="82" width="4" height="1" fill="currentColor"/>
<rect x="12" y="82" width="2" height="1" fill="currentColor"/>
<rect x="15" y="82" width="4" height="1" fill="currentColor"/>
<rect x="83" y="82" width="10" height="1" fill="currentColor"/>
<rect x="95" y="82" width="2" height="1" fill="currentColor"/>
<rect x="112" y="82" width="1" height="1" fill="currentColor"/>
<rect x="114" y="82" width="1" height="1" fill="currentColor"/>
<rect x="116" y="82" width="19" height="1" fill="currentColor"/>
<rect x="136" y="82" width="4" height="1" fill="currentColor"/>
<rect x="141" y="82" width="2" height="1" fill="currentColor"/>
<rect x="191" y="82" width="5" height="1" fill="currentColor"/>
<rect x="199" y="82" width="8" height="1" fill="currentColor"/>
<rect x="231" y="82" width="2" height="1" fill="currentColor"/>
<rect x="234" y="82" width="9" height="1" fill="currentColor"/>
<rect x="261" y="82" width="2" height="1" fill="currentColor"/>
<rect x="264" y="82" width="1" height="1" fill="currentColor"/>
<rect x="268" y="82" width="11" height="1" fill="currentColor"/>
<rect x="281" y="82" width="3" height="1" fill="currentColor"/>
<rect x="6" y="83" width="2" height="1" fill="currentColor"/>
<rect x="11" y="83" width="2" height="1" fill="currentColor"/>
<rect x="15" y="83" width="4" height="1" fill="currentColor"/>
<rect x="83" y="83" width="8" height="1" fill="currentColor"/>
<rect x="120" y="83" width="1" height="1" fill="currentColor"/>
<rect x="122" y="83" width="6" height="1" fill="currentColor"/>
<rect x="131" y="83" width="1" height="1" fill="currentColor"/>
<rect x="188" y="83" width="8" height="1" fill="currentColor"/>
<rect x="202" y="83" width="1" height="1" fill="currentColor"/>
<rect x="204" y="83" width="3" height="1" fill="currentColor"/>
<rect x="208" y="83" width="1" height="1" fill="currentColor"/>
<rect x="229" y="83" width="8" height="1" fill="currentColor"/>
<rect x="239" y="83" width="4" height="1" fill="currentColor"/>
<rect x="261" y="83" width="2" height="1" fill="currentColor"/>
<rect x="268" y="83" width="5" height="1" fill="currentColor"/>
<rect x="274" y="83" width="12" height="1" fill="currentColor"/>
<rect x="288" y="83" width="1" height="1" fill="currentColor"/>
<rect x="5" y="84" width="4" height="1" fill="currentColor"/>
<rect x="11" y="84" width="3" height="1" fill="currentColor"/>
<rect x="79" y="84" width="8" height="1" fill="currentColor"/>
<rect x="121" y="84" width="1" height="1" fill="currentColor"/>
<rect x="123" y="84" width="2" height="1" fill="currentColor"/>
<rect x="126" y="84" width="4" height="1" fill="currentColor"/>
<rect x="187" y="84" width="5" height="1" fill="currentColor"/>
<rect x="205" y="84" width="5" height="1" fill="currentColor"/>
<rect x="228" y="84" width="4" height="1" fill="currentColor"/>
<rect x="233" y="84" width="1" height="1" fill="currentColor"/>
<rect x="242" y="84" width="2" height="1" fill="currentColor"/>
<rect x="260" y="84" width="3" height="1" fill="currentColor"/>
<rect x="268" y="84" width="4" height="1" fill="currentColor"/>
<rect x="276" y="84" width="2" height="1" fill="currentColor"/>
<rect x="280" y="84" width="12" height="1" fill="currentColor"/>
<rect x="294" y="84" width="6" height="1" fill="currentColor"/>
<rect x="301" y="84" width="1" height="1" fill="currentColor"/>
<rect x="303" y="84" width="1" height="1" fill="currentColor"/>
<rect x="11" y="85" width="3" height="1" fill="currentColor"/>
<rect x="77" y="85" width="6" height="1" fill="currentColor"/>
<rect x="121" y="85" width="4" height="1" fill="currentColor"/>
<rect x="127" y="85" width="5" height="1" fill="currentColor"/>
<rect x="186" y="85" width="4" height="1" fill="currentColor"/>
<rect x="207" y="85" width="4" height="1" fill="currentColor"/>
<rect x="223" y="85" width="9" height="1" fill="currentColor"/>
<rect x="241" y="85" width="4" height="1" fill="currentColor"/>
<rect x="261" y="85" width="1" height="1" fill="currentColor"/>
<rect x="268" y="85" width="2" height="1" fill="currentColor"/>
<rect x="285" y="85" width="22" height="1" fill="currentColor"/>
<rect x="12" y="86" width="2" height="1" fill="currentColor"/>
<rect x="77" y="86" width="5" height="1" fill="currentColor"/>
<rect x="119" y="86" width="5" height="1" fill="currentColor"/>
<rect x="129" y="86" width="3" height="1" fill="currentColor"/>
<rect x="185" y="86" width="3" height="1" fill="currentColor"/>
<rect x="208" y="86" width="5" height="1" fill="currentColor"/>
<rect x="222" y="86" width="7" height="1" fill="currentColor"/>
<rect x="243" y="86" width="3" height="1" fill="currentColor"/>
<rect x="261" y="86" width="1" height="1" fill="currentColor"/>
<rect x="268" y="86" width="3" height="1" fill="currentColor"/>
<rect x="290" y="86" width="1" height="1" fill="currentColor"/>
<rect x="292" y="86" width="2" height="1" fill="currentColor"/>
<rect x="295" y="86" width="5" height="1" fill="currentColor"/>
<rect x="301" y="86" width="9" height="1" fill="currentColor"/>
<rect x="12" y="87" width="2" height="1" fill="currentColor"/>
<rect x="75" y="87" width="4" height="1" fill="currentColor"/>
<rect x="119" y="87" width="4" height="1" fill="currentColor"/>
<rect x="130" y="87" width="3" height="1" fill="currentColor"/>
<rect x="185" y="87" width="2" height="1" fill="currentColor"/>
<rect x="209" y="87" width="6" height="1" fill="currentColor"/>
<rect x="219" y="87" width="7" height="1" fill="currentColor"/>
<rect x="243" y="87" width="7" height="1" fill="currentColor"/>
<rect x="260" y="87" width="4" height="1" fill="currentColor"/>
<rect x="267" y="87" width="4" height="1" fill="currentColor"/>
<rect x="304" y="87" width="2" height="1" fill="currentColor"/>
<rect x="307" y="87" width="7" height="1" fill="currentColor"/>
<rect x="12" y="88" width="2" height="1" fill="currentColor"/>
<rect x="73" y="88" width="4" height="1" fill="currentColor"/>
<rect x="119" y="88" width="2" height="1" fill="currentColor"/>
<rect x="130" y="88" width="3" height="1" fill="currentColor"/>
<rect x="185" y="88" width="2" height="1" fill="currentColor"/>
<rect x="211" y="88" width="12" height="1" fill="currentColor"/>
<rect x="244" y="88" width="9" height="1" fill="currentColor"/>
<rect x="261" y="88" width="8" height="1" fill="currentColor"/>
<rect x="309" y="88" width="7" height="1" fill="currentColor"/>
<rect x="11" y="89" width="3" height="1" fill="currentColor"/>
<rect x="72" y="89" width="5" height="1" fill="currentColor"/>
<rect x="118" y="89" width="4" height="1" fill="currentColor"/>
<rect x="130" y="89" width="3" height="1" fill="currentColor"/>
<rect x="185" y="89" width="1" height="1" fill="currentColor"/>
<rect x="213" y="89" width="7" height="1" fill="currentColor"/>
<rect x="247" y="89" width="7" height="1" fill="currentColor"/>
<rect x="256" y="89" width="1" height="1" fill="currentColor"/>
<rect x="258" y="89" width="2" height="1" fill="currentColor"/>
<rect x="261" y="89" width="7" height="1" fill="currentColor"/>
<rect x="310" y="89" width="9" height="1" fill="currentColor"/>
<rect x="11" y="90" width="4" height="1" fill="currentColor"/>
<rect x="72" y="90" width="3" height="1" fill="currentColor"/>
<rect x="118" y="90" width="4" height="1" fill="currentColor"/>
<rect x="130" y="90" width="3" height="1" fill="currentColor"/>
<rect x="213" y="90" width="2" height="1" fill="currentColor"/>
<rect x="216" y="90" width="1" height="1" fill="currentColor"/>
<rect x="251" y="90" width="16" height="1" fill="currentColor"/>
<rect x="310" y="90" width="5" height="1" fill="currentColor"/>
<rect x="316" y="90" width="3" height="1" fill="currentColor"/>
<rect x="11" y="91" width="3" height="1" fill="currentColor"/>
<rect x="70" y="91" width="5" height="1" fill="currentColor"/>
<rect x="119" y="91" width="2" height="1" fill="currentColor"/>
<rect x="130" y="91" width="3" height="1" fill="currentColor"/>
<rect x="252" y="91" width="4" height="1" fill="currentColor"/>
<rect x="257" y="91" width="1" height="1" fill="currentColor"/>
<rect x="259" y="91" width="3" height="1" fill="currentColor"/>
<rect x="263" y="91" width="1" height="1" fill="currentColor"/>
<rect x="309" y="91" width="4" height="1" fill="currentColor"/>
<rect x="317" y="91" width="4" height="1" fill="currentColor"/>
<rect x="11" y="92" width="4" height="1" fill="currentColor"/>
<rect x="25" y="92" width="1" height="1" fill="currentColor"/>
<rect x="69" y="92" width="4" height="1" fill="currentColor"/>
<rect x="119" y="92" width="3" height="1" fill="currentColor"/>
<rect x="131" y="92" width="2" height="1" fill="currentColor"/>
<rect x="310" y="92" width="2" height="1" fill="currentColor"/>
<rect x="319" y="92" width="2" height="1" fill="currentColor"/>
<rect x="12" y="93" width="2" height="1" fill="currentColor"/>
<rect x="25" y="93" width="3" height="1" fill="currentColor"/>
<rect x="65" y="93" width="1" height="1" fill="currentColor"/>
<rect x="67" y="93" width="3" height="1" fill="currentColor"/>
<rect x="120" y="93" width="2" height="1" fill="currentColor"/>
<rect x="130" y="93" width="3" height="1" fill="currentColor"/>
<rect x="310" y="93" width="3" height="1" fill="currentColor"/>
<rect x="318" y="93" width="3" height="1" fill="currentColor"/>
<rect x="12" y="94" width="2" height="1" fill="currentColor"/>
<rect x="25" y="94" width="4" height="1" fill="currentColor"/>
<rect x="65" y="94" width="5" height="1" fill="currentColor"/>
<rect x="119" y="94" width="4" height="1" fill="currentColor"/>
<rect x="129" y="94" width="2" height="1" fill="currentColor"/>
<rect x="310" y="94" width="3" height="1" fill="currentColor"/>
<rect x="318" y="94" width="3" height="1" fill="currentColor"/>
<rect x="12" y="95" width="2" height="1" fill="currentColor"/>
<rect x="26" y="95" width="3" height="1" fill="currentColor"/>
<rect x="30" y="95" width="1" height="1" fill="currentColor"/>
<rect x="60" y="95" width="8" height="1" fill="currentColor"/>
<rect x="120" y="95" width="3" height="1" fill="currentColor"/>
<rect x="127" y="95" width="1" height="1" fill="currentColor"/>
<rect x="129" y="95" width="2" height="1" fill="currentColor"/>
<rect x="310" y="95" width="4" height="1" fill="currentColor"/>
<rect x="319" y="95" width="2" height="1" fill="currentColor"/>
<rect x="12" y="96" width="2" height="1" fill="currentColor"/>
<rect x="27" y="96" width="5" height="1" fill="currentColor"/>
<rect x="57" y="96" width="1" height="1" fill="currentColor"/>
<rect x="59" y="96" width="7" height="1" fill="currentColor"/>
<rect x="122" y="96" width="9" height="1" fill="currentColor"/>
<rect x="311" y="96" width="5" height="1" fill="currentColor"/>
<rect x="317" y="96" width="3" height="1" fill="currentColor"/>
<rect x="13" y="97" width="1" height="1" fill="currentColor"/>
<rect x="28" y="97" width="7" height="1" fill="currentColor"/>
<rect x="51" y="97" width="11" height="1" fill="currentColor"/>
<rect x="122" y="97" width="7" height="1" fill="currentColor"/>
<rect x="311" y="97" width="9" height="1" fill="currentColor"/>
<rect x="30" y="98" width="14" height="1" fill="currentColor"/>
<rect x="45" y="98" width="3" height="1" fill="currentColor"/>
<rect x="49" y="98" width="10" height="1" fill="currentColor"/>
<rect x="313" y="98" width="4" height="1" fill="currentColor"/>
<rect x="32" y="99" width="22" height="1" fill="currentColor"/>
<rect x="55" y="99" width="1" height="1" fill="currentColor"/>
<rect x="315" y="99" width="1" height="1" fill="currentColor"/>
<rect x="40" y="100" width="3" height="1" fill="currentColor"/>
<rect x="44" y="100" width="1" height="1" fill="currentColor"/>
<rect x="46" y="100" width="7" height="1" fill="currentColor"/>
</svg>
